<mxfile host="c48fc2b8-a8b1-46df-8b5a-a4e6186d17ac" modified="2020-09-09T05:35:31.677Z" agent="5.0 (Windows NT 10.0; Win64; x64) AppleWebKit/537.36 (KHTML, like Gecko) Code/1.48.2 Chrome/78.0.3904.130 Electron/7.3.2 Safari/537.36" etag="w4YnSdgDbuux5AMwmi62" version="13.1.3" pages="5">
    <diagram name="ブザーの更新" id="sHjXgTzeAOtryM8AVv4b">
        <mxGraphModel dx="398" dy="424" grid="1" gridSize="10" guides="1" tooltips="1" connect="1" arrows="1" fold="1" page="1" pageScale="1" pageWidth="827" pageHeight="1169" math="0" shadow="0">
            <root>
                <mxCell id="dr038-qqmDyIK8T8McZE-0"/>
                <mxCell id="dr038-qqmDyIK8T8McZE-1" parent="dr038-qqmDyIK8T8McZE-0"/>
                <mxCell id="W0YhLz_EQgFUQMOhoSJx-53" value="" style="edgeStyle=orthogonalEdgeStyle;rounded=0;orthogonalLoop=1;jettySize=auto;html=1;" parent="dr038-qqmDyIK8T8McZE-1" source="dr038-qqmDyIK8T8McZE-3" target="W0YhLz_EQgFUQMOhoSJx-22" edge="1">
                    <mxGeometry relative="1" as="geometry"/>
                </mxCell>
                <mxCell id="dr038-qqmDyIK8T8McZE-3" value="START" style="strokeWidth=2;html=1;shape=mxgraph.flowchart.terminator;whiteSpace=wrap;" parent="dr038-qqmDyIK8T8McZE-1" vertex="1">
                    <mxGeometry x="100" y="100" width="100" height="60" as="geometry"/>
                </mxCell>
                <mxCell id="dr038-qqmDyIK8T8McZE-4" value="ブザーの更新" style="shape=note;whiteSpace=wrap;html=1;size=14;verticalAlign=top;align=left;spacingTop=-6;" parent="dr038-qqmDyIK8T8McZE-1" vertex="1">
                    <mxGeometry x="100" y="50" width="100" height="30" as="geometry"/>
                </mxCell>
                <mxCell id="dr038-qqmDyIK8T8McZE-5" value="" style="edgeStyle=orthogonalEdgeStyle;rounded=0;orthogonalLoop=1;jettySize=auto;html=1;exitX=0.5;exitY=1;exitDx=0;exitDy=0;" parent="dr038-qqmDyIK8T8McZE-1" source="G2oQgX6TiOGb2vG8f04e-0" edge="1">
                    <mxGeometry relative="1" as="geometry">
                        <mxPoint x="150" y="610" as="sourcePoint"/>
                        <mxPoint x="150" y="660" as="targetPoint"/>
                    </mxGeometry>
                </mxCell>
                <mxCell id="dr038-qqmDyIK8T8McZE-7" value="" style="edgeStyle=orthogonalEdgeStyle;rounded=0;orthogonalLoop=1;jettySize=auto;html=1;exitX=0.5;exitY=1;exitDx=0;exitDy=0;" parent="dr038-qqmDyIK8T8McZE-1" source="G2oQgX6TiOGb2vG8f04e-1" edge="1">
                    <mxGeometry relative="1" as="geometry">
                        <mxPoint x="150" y="750" as="targetPoint"/>
                        <mxPoint x="150" y="710" as="sourcePoint"/>
                    </mxGeometry>
                </mxCell>
                <mxCell id="dr038-qqmDyIK8T8McZE-22" value="END" style="strokeWidth=2;html=1;shape=mxgraph.flowchart.terminator;whiteSpace=wrap;" parent="dr038-qqmDyIK8T8McZE-1" vertex="1">
                    <mxGeometry x="100" y="910" width="100" height="60" as="geometry"/>
                </mxCell>
                <mxCell id="W0YhLz_EQgFUQMOhoSJx-0" value="BGMStateの&lt;br&gt;切り替え" style="shape=process;whiteSpace=wrap;html=1;backgroundOutline=1;" parent="dr038-qqmDyIK8T8McZE-1" vertex="1">
                    <mxGeometry x="80" y="1190" width="120" height="60" as="geometry"/>
                </mxCell>
                <mxCell id="W0YhLz_EQgFUQMOhoSJx-1" value="" style="edgeStyle=orthogonalEdgeStyle;rounded=0;orthogonalLoop=1;jettySize=auto;html=1;" parent="dr038-qqmDyIK8T8McZE-1" source="W0YhLz_EQgFUQMOhoSJx-2" target="W0YhLz_EQgFUQMOhoSJx-5" edge="1">
                    <mxGeometry relative="1" as="geometry"/>
                </mxCell>
                <mxCell id="W0YhLz_EQgFUQMOhoSJx-2" value="START" style="strokeWidth=2;html=1;shape=mxgraph.flowchart.terminator;whiteSpace=wrap;" parent="dr038-qqmDyIK8T8McZE-1" vertex="1">
                    <mxGeometry x="90" y="1290" width="100" height="60" as="geometry"/>
                </mxCell>
                <mxCell id="W0YhLz_EQgFUQMOhoSJx-3" value="" style="edgeStyle=orthogonalEdgeStyle;rounded=0;orthogonalLoop=1;jettySize=auto;html=1;" parent="dr038-qqmDyIK8T8McZE-1" source="W0YhLz_EQgFUQMOhoSJx-5" target="W0YhLz_EQgFUQMOhoSJx-7" edge="1">
                    <mxGeometry relative="1" as="geometry"/>
                </mxCell>
                <mxCell id="W0YhLz_EQgFUQMOhoSJx-4" style="edgeStyle=orthogonalEdgeStyle;rounded=0;orthogonalLoop=1;jettySize=auto;html=1;" parent="dr038-qqmDyIK8T8McZE-1" source="W0YhLz_EQgFUQMOhoSJx-5" edge="1">
                    <mxGeometry relative="1" as="geometry">
                        <mxPoint x="150" y="2110" as="targetPoint"/>
                        <Array as="points">
                            <mxPoint x="260" y="1530"/>
                            <mxPoint x="260" y="2110"/>
                        </Array>
                    </mxGeometry>
                </mxCell>
                <mxCell id="W0YhLz_EQgFUQMOhoSJx-5" value="BGM再生&lt;br&gt;フラグが立ったか？&lt;br&gt;BGMStartFlg" style="strokeWidth=2;html=1;shape=mxgraph.flowchart.decision;whiteSpace=wrap;" parent="dr038-qqmDyIK8T8McZE-1" vertex="1">
                    <mxGeometry x="60" y="1390" width="160" height="100" as="geometry"/>
                </mxCell>
                <mxCell id="W0YhLz_EQgFUQMOhoSJx-6" value="" style="edgeStyle=orthogonalEdgeStyle;rounded=0;orthogonalLoop=1;jettySize=auto;html=1;" parent="dr038-qqmDyIK8T8McZE-1" source="W0YhLz_EQgFUQMOhoSJx-7" target="W0YhLz_EQgFUQMOhoSJx-9" edge="1">
                    <mxGeometry relative="1" as="geometry"/>
                </mxCell>
                <mxCell id="W0YhLz_EQgFUQMOhoSJx-7" value="BGMStartFlgを&lt;br&gt;下げる" style="rounded=1;whiteSpace=wrap;html=1;absoluteArcSize=1;arcSize=14;strokeWidth=2;" parent="dr038-qqmDyIK8T8McZE-1" vertex="1">
                    <mxGeometry x="90" y="1690" width="100" height="70" as="geometry"/>
                </mxCell>
                <mxCell id="W0YhLz_EQgFUQMOhoSJx-8" value="" style="edgeStyle=orthogonalEdgeStyle;rounded=0;orthogonalLoop=1;jettySize=auto;html=1;entryX=0.5;entryY=0;entryDx=0;entryDy=0;entryPerimeter=0;" parent="dr038-qqmDyIK8T8McZE-1" target="W0YhLz_EQgFUQMOhoSJx-14" edge="1">
                    <mxGeometry relative="1" as="geometry">
                        <mxPoint x="140" y="1940" as="targetPoint"/>
                        <mxPoint x="140" y="2000" as="sourcePoint"/>
                    </mxGeometry>
                </mxCell>
                <mxCell id="W0YhLz_EQgFUQMOhoSJx-9" value="IsPlayBGMを&lt;br&gt;trueに変更する" style="rounded=1;whiteSpace=wrap;html=1;absoluteArcSize=1;arcSize=14;strokeWidth=2;" parent="dr038-qqmDyIK8T8McZE-1" vertex="1">
                    <mxGeometry x="90" y="1810" width="100" height="70" as="geometry"/>
                </mxCell>
                <mxCell id="W0YhLz_EQgFUQMOhoSJx-10" value="ON" style="text;html=1;align=center;verticalAlign=middle;resizable=0;points=[];autosize=1;" parent="dr038-qqmDyIK8T8McZE-1" vertex="1">
                    <mxGeometry x="145" y="1490" width="30" height="20" as="geometry"/>
                </mxCell>
                <mxCell id="W0YhLz_EQgFUQMOhoSJx-11" value="OFF" style="text;html=1;align=center;verticalAlign=middle;resizable=0;points=[];autosize=1;" parent="dr038-qqmDyIK8T8McZE-1" vertex="1">
                    <mxGeometry x="200" y="1410" width="40" height="20" as="geometry"/>
                </mxCell>
                <mxCell id="W0YhLz_EQgFUQMOhoSJx-12" value="" style="edgeStyle=orthogonalEdgeStyle;rounded=0;orthogonalLoop=1;jettySize=auto;html=1;" parent="dr038-qqmDyIK8T8McZE-1" source="W0YhLz_EQgFUQMOhoSJx-14" target="W0YhLz_EQgFUQMOhoSJx-16" edge="1">
                    <mxGeometry relative="1" as="geometry"/>
                </mxCell>
                <mxCell id="W0YhLz_EQgFUQMOhoSJx-13" style="edgeStyle=orthogonalEdgeStyle;rounded=0;orthogonalLoop=1;jettySize=auto;html=1;" parent="dr038-qqmDyIK8T8McZE-1" source="W0YhLz_EQgFUQMOhoSJx-14" edge="1">
                    <mxGeometry relative="1" as="geometry">
                        <mxPoint x="140" y="2630" as="targetPoint"/>
                        <Array as="points">
                            <mxPoint x="250" y="2220"/>
                            <mxPoint x="250" y="2630"/>
                            <mxPoint x="150" y="2630"/>
                        </Array>
                    </mxGeometry>
                </mxCell>
                <mxCell id="W0YhLz_EQgFUQMOhoSJx-14" value="BGM停止&lt;br&gt;フラグが立ったか？&lt;br&gt;BGMStopFlg" style="strokeWidth=2;html=1;shape=mxgraph.flowchart.decision;whiteSpace=wrap;" parent="dr038-qqmDyIK8T8McZE-1" vertex="1">
                    <mxGeometry x="60" y="2170" width="160" height="100" as="geometry"/>
                </mxCell>
                <mxCell id="W0YhLz_EQgFUQMOhoSJx-15" value="" style="edgeStyle=orthogonalEdgeStyle;rounded=0;orthogonalLoop=1;jettySize=auto;html=1;" parent="dr038-qqmDyIK8T8McZE-1" source="W0YhLz_EQgFUQMOhoSJx-16" target="W0YhLz_EQgFUQMOhoSJx-18" edge="1">
                    <mxGeometry relative="1" as="geometry"/>
                </mxCell>
                <mxCell id="W0YhLz_EQgFUQMOhoSJx-16" value="BGMStopFlgを&lt;br&gt;下げる" style="rounded=1;whiteSpace=wrap;html=1;absoluteArcSize=1;arcSize=14;strokeWidth=2;" parent="dr038-qqmDyIK8T8McZE-1" vertex="1">
                    <mxGeometry x="90" y="2320" width="100" height="70" as="geometry"/>
                </mxCell>
                <mxCell id="W0YhLz_EQgFUQMOhoSJx-17" value="" style="edgeStyle=orthogonalEdgeStyle;rounded=0;orthogonalLoop=1;jettySize=auto;html=1;entryX=0.5;entryY=0;entryDx=0;entryDy=0;entryPerimeter=0;" parent="dr038-qqmDyIK8T8McZE-1" source="dOXR6lsI84Fi3N2v8vNx-7" target="W0YhLz_EQgFUQMOhoSJx-21" edge="1">
                    <mxGeometry relative="1" as="geometry">
                        <mxPoint x="140" y="2630" as="targetPoint"/>
                        <mxPoint x="139" y="2610" as="sourcePoint"/>
                    </mxGeometry>
                </mxCell>
                <mxCell id="dOXR6lsI84Fi3N2v8vNx-8" value="" style="edgeStyle=orthogonalEdgeStyle;rounded=0;orthogonalLoop=1;jettySize=auto;html=1;" parent="dr038-qqmDyIK8T8McZE-1" source="W0YhLz_EQgFUQMOhoSJx-18" target="dOXR6lsI84Fi3N2v8vNx-7" edge="1">
                    <mxGeometry relative="1" as="geometry"/>
                </mxCell>
                <mxCell id="W0YhLz_EQgFUQMOhoSJx-18" value="IsPlayBGMを&lt;br&gt;falseに変更する" style="rounded=1;whiteSpace=wrap;html=1;absoluteArcSize=1;arcSize=14;strokeWidth=2;" parent="dr038-qqmDyIK8T8McZE-1" vertex="1">
                    <mxGeometry x="90" y="2430" width="100" height="70" as="geometry"/>
                </mxCell>
                <mxCell id="W0YhLz_EQgFUQMOhoSJx-19" value="ON" style="text;html=1;align=center;verticalAlign=middle;resizable=0;points=[];autosize=1;" parent="dr038-qqmDyIK8T8McZE-1" vertex="1">
                    <mxGeometry x="145" y="2270" width="30" height="20" as="geometry"/>
                </mxCell>
                <mxCell id="W0YhLz_EQgFUQMOhoSJx-20" value="OFF" style="text;html=1;align=center;verticalAlign=middle;resizable=0;points=[];autosize=1;" parent="dr038-qqmDyIK8T8McZE-1" vertex="1">
                    <mxGeometry x="200" y="2190" width="40" height="20" as="geometry"/>
                </mxCell>
                <mxCell id="W0YhLz_EQgFUQMOhoSJx-21" value="END" style="strokeWidth=2;html=1;shape=mxgraph.flowchart.terminator;whiteSpace=wrap;" parent="dr038-qqmDyIK8T8McZE-1" vertex="1">
                    <mxGeometry x="90" y="2670" width="100" height="60" as="geometry"/>
                </mxCell>
                <mxCell id="W0YhLz_EQgFUQMOhoSJx-52" value="" style="edgeStyle=orthogonalEdgeStyle;rounded=0;orthogonalLoop=1;jettySize=auto;html=1;" parent="dr038-qqmDyIK8T8McZE-1" source="W0YhLz_EQgFUQMOhoSJx-22" target="W0YhLz_EQgFUQMOhoSJx-23" edge="1">
                    <mxGeometry relative="1" as="geometry"/>
                </mxCell>
                <mxCell id="W0YhLz_EQgFUQMOhoSJx-22" value="BGMStateの&lt;br&gt;切り替え" style="shape=process;whiteSpace=wrap;html=1;backgroundOutline=1;" parent="dr038-qqmDyIK8T8McZE-1" vertex="1">
                    <mxGeometry x="90" y="200" width="120" height="60" as="geometry"/>
                </mxCell>
                <mxCell id="W0YhLz_EQgFUQMOhoSJx-51" value="" style="edgeStyle=orthogonalEdgeStyle;rounded=0;orthogonalLoop=1;jettySize=auto;html=1;" parent="dr038-qqmDyIK8T8McZE-1" source="W0YhLz_EQgFUQMOhoSJx-23" target="W0YhLz_EQgFUQMOhoSJx-46" edge="1">
                    <mxGeometry relative="1" as="geometry"/>
                </mxCell>
                <mxCell id="W0YhLz_EQgFUQMOhoSJx-23" value="SEStateの&lt;br&gt;切り替え" style="shape=process;whiteSpace=wrap;html=1;backgroundOutline=1;" parent="dr038-qqmDyIK8T8McZE-1" vertex="1">
                    <mxGeometry x="90" y="300" width="120" height="60" as="geometry"/>
                </mxCell>
                <mxCell id="W0YhLz_EQgFUQMOhoSJx-24" value="SEStateの&lt;br&gt;切り替え" style="shape=process;whiteSpace=wrap;html=1;backgroundOutline=1;" parent="dr038-qqmDyIK8T8McZE-1" vertex="1">
                    <mxGeometry x="320" y="1190" width="120" height="60" as="geometry"/>
                </mxCell>
                <mxCell id="W0YhLz_EQgFUQMOhoSJx-25" value="" style="edgeStyle=orthogonalEdgeStyle;rounded=0;orthogonalLoop=1;jettySize=auto;html=1;" parent="dr038-qqmDyIK8T8McZE-1" source="W0YhLz_EQgFUQMOhoSJx-26" target="W0YhLz_EQgFUQMOhoSJx-29" edge="1">
                    <mxGeometry relative="1" as="geometry"/>
                </mxCell>
                <mxCell id="W0YhLz_EQgFUQMOhoSJx-26" value="START" style="strokeWidth=2;html=1;shape=mxgraph.flowchart.terminator;whiteSpace=wrap;" parent="dr038-qqmDyIK8T8McZE-1" vertex="1">
                    <mxGeometry x="330" y="1290" width="100" height="60" as="geometry"/>
                </mxCell>
                <mxCell id="W0YhLz_EQgFUQMOhoSJx-27" value="" style="edgeStyle=orthogonalEdgeStyle;rounded=0;orthogonalLoop=1;jettySize=auto;html=1;" parent="dr038-qqmDyIK8T8McZE-1" edge="1">
                    <mxGeometry relative="1" as="geometry">
                        <mxPoint x="380" y="1480" as="sourcePoint"/>
                        <mxPoint x="380" y="1530" as="targetPoint"/>
                    </mxGeometry>
                </mxCell>
                <mxCell id="W0YhLz_EQgFUQMOhoSJx-28" style="edgeStyle=orthogonalEdgeStyle;rounded=0;orthogonalLoop=1;jettySize=auto;html=1;exitX=1;exitY=0.5;exitDx=0;exitDy=0;exitPerimeter=0;" parent="dr038-qqmDyIK8T8McZE-1" source="W0YhLz_EQgFUQMOhoSJx-29" edge="1">
                    <mxGeometry relative="1" as="geometry">
                        <mxPoint x="380" y="2110" as="targetPoint"/>
                        <Array as="points">
                            <mxPoint x="720" y="1440"/>
                            <mxPoint x="720" y="2110"/>
                        </Array>
                    </mxGeometry>
                </mxCell>
                <mxCell id="W0YhLz_EQgFUQMOhoSJx-29" value="効果音再生&lt;br&gt;フラグが立ったか？&lt;br&gt;SEStartFlg" style="strokeWidth=2;html=1;shape=mxgraph.flowchart.decision;whiteSpace=wrap;" parent="dr038-qqmDyIK8T8McZE-1" vertex="1">
                    <mxGeometry x="300" y="1390" width="160" height="100" as="geometry"/>
                </mxCell>
                <mxCell id="W0YhLz_EQgFUQMOhoSJx-30" value="" style="edgeStyle=orthogonalEdgeStyle;rounded=0;orthogonalLoop=1;jettySize=auto;html=1;" parent="dr038-qqmDyIK8T8McZE-1" source="W0YhLz_EQgFUQMOhoSJx-31" target="W0YhLz_EQgFUQMOhoSJx-33" edge="1">
                    <mxGeometry relative="1" as="geometry"/>
                </mxCell>
                <mxCell id="W0YhLz_EQgFUQMOhoSJx-31" value="SEStartFlgを&lt;br&gt;下げる" style="rounded=1;whiteSpace=wrap;html=1;absoluteArcSize=1;arcSize=14;strokeWidth=2;" parent="dr038-qqmDyIK8T8McZE-1" vertex="1">
                    <mxGeometry x="330" y="1690" width="100" height="70" as="geometry"/>
                </mxCell>
                <mxCell id="W0YhLz_EQgFUQMOhoSJx-32" value="" style="edgeStyle=orthogonalEdgeStyle;rounded=0;orthogonalLoop=1;jettySize=auto;html=1;" parent="dr038-qqmDyIK8T8McZE-1" source="W0YhLz_EQgFUQMOhoSJx-33" edge="1">
                    <mxGeometry relative="1" as="geometry">
                        <mxPoint x="380" y="2170" as="targetPoint"/>
                    </mxGeometry>
                </mxCell>
                <mxCell id="W0YhLz_EQgFUQMOhoSJx-33" value="IsPlaySEを&lt;br&gt;trueに変更する" style="rounded=1;whiteSpace=wrap;html=1;absoluteArcSize=1;arcSize=14;strokeWidth=2;" parent="dr038-qqmDyIK8T8McZE-1" vertex="1">
                    <mxGeometry x="330" y="1810" width="100" height="70" as="geometry"/>
                </mxCell>
                <mxCell id="W0YhLz_EQgFUQMOhoSJx-34" value="ON" style="text;html=1;align=center;verticalAlign=middle;resizable=0;points=[];autosize=1;" parent="dr038-qqmDyIK8T8McZE-1" vertex="1">
                    <mxGeometry x="385" y="1490" width="30" height="20" as="geometry"/>
                </mxCell>
                <mxCell id="W0YhLz_EQgFUQMOhoSJx-35" value="OFF" style="text;html=1;align=center;verticalAlign=middle;resizable=0;points=[];autosize=1;" parent="dr038-qqmDyIK8T8McZE-1" vertex="1">
                    <mxGeometry x="440" y="1410" width="40" height="20" as="geometry"/>
                </mxCell>
                <mxCell id="W0YhLz_EQgFUQMOhoSJx-36" value="" style="edgeStyle=orthogonalEdgeStyle;rounded=0;orthogonalLoop=1;jettySize=auto;html=1;" parent="dr038-qqmDyIK8T8McZE-1" source="W0YhLz_EQgFUQMOhoSJx-38" target="W0YhLz_EQgFUQMOhoSJx-40" edge="1">
                    <mxGeometry relative="1" as="geometry"/>
                </mxCell>
                <mxCell id="W0YhLz_EQgFUQMOhoSJx-37" style="edgeStyle=orthogonalEdgeStyle;rounded=0;orthogonalLoop=1;jettySize=auto;html=1;" parent="dr038-qqmDyIK8T8McZE-1" source="W0YhLz_EQgFUQMOhoSJx-38" edge="1">
                    <mxGeometry relative="1" as="geometry">
                        <mxPoint x="390" y="2640" as="targetPoint"/>
                        <Array as="points">
                            <mxPoint x="490" y="2220"/>
                            <mxPoint x="490" y="2640"/>
                            <mxPoint x="390" y="2640"/>
                        </Array>
                    </mxGeometry>
                </mxCell>
                <mxCell id="W0YhLz_EQgFUQMOhoSJx-38" value="効果音停止&lt;br&gt;フラグが立ったか？&lt;br&gt;SEStopFlg" style="strokeWidth=2;html=1;shape=mxgraph.flowchart.decision;whiteSpace=wrap;" parent="dr038-qqmDyIK8T8McZE-1" vertex="1">
                    <mxGeometry x="300" y="2170" width="160" height="100" as="geometry"/>
                </mxCell>
                <mxCell id="W0YhLz_EQgFUQMOhoSJx-39" value="" style="edgeStyle=orthogonalEdgeStyle;rounded=0;orthogonalLoop=1;jettySize=auto;html=1;" parent="dr038-qqmDyIK8T8McZE-1" source="W0YhLz_EQgFUQMOhoSJx-40" target="W0YhLz_EQgFUQMOhoSJx-42" edge="1">
                    <mxGeometry relative="1" as="geometry"/>
                </mxCell>
                <mxCell id="W0YhLz_EQgFUQMOhoSJx-40" value="SEStopFlgを&lt;br&gt;下げる" style="rounded=1;whiteSpace=wrap;html=1;absoluteArcSize=1;arcSize=14;strokeWidth=2;" parent="dr038-qqmDyIK8T8McZE-1" vertex="1">
                    <mxGeometry x="330" y="2320" width="100" height="70" as="geometry"/>
                </mxCell>
                <mxCell id="W0YhLz_EQgFUQMOhoSJx-41" value="" style="edgeStyle=orthogonalEdgeStyle;rounded=0;orthogonalLoop=1;jettySize=auto;html=1;" parent="dr038-qqmDyIK8T8McZE-1" source="W0YhLz_EQgFUQMOhoSJx-42" target="W0YhLz_EQgFUQMOhoSJx-45" edge="1">
                    <mxGeometry relative="1" as="geometry">
                        <mxPoint x="380" y="2630" as="targetPoint"/>
                    </mxGeometry>
                </mxCell>
                <mxCell id="W0YhLz_EQgFUQMOhoSJx-42" value="IsPlaySEを&lt;br&gt;falseに変更する" style="rounded=1;whiteSpace=wrap;html=1;absoluteArcSize=1;arcSize=14;strokeWidth=2;" parent="dr038-qqmDyIK8T8McZE-1" vertex="1">
                    <mxGeometry x="330" y="2430" width="100" height="70" as="geometry"/>
                </mxCell>
                <mxCell id="W0YhLz_EQgFUQMOhoSJx-43" value="ON" style="text;html=1;align=center;verticalAlign=middle;resizable=0;points=[];autosize=1;" parent="dr038-qqmDyIK8T8McZE-1" vertex="1">
                    <mxGeometry x="385" y="2270" width="30" height="20" as="geometry"/>
                </mxCell>
                <mxCell id="W0YhLz_EQgFUQMOhoSJx-44" value="OFF" style="text;html=1;align=center;verticalAlign=middle;resizable=0;points=[];autosize=1;" parent="dr038-qqmDyIK8T8McZE-1" vertex="1">
                    <mxGeometry x="450" y="2190" width="40" height="20" as="geometry"/>
                </mxCell>
                <mxCell id="W0YhLz_EQgFUQMOhoSJx-45" value="END" style="strokeWidth=2;html=1;shape=mxgraph.flowchart.terminator;whiteSpace=wrap;" parent="dr038-qqmDyIK8T8McZE-1" vertex="1">
                    <mxGeometry x="330" y="2670" width="100" height="60" as="geometry"/>
                </mxCell>
                <mxCell id="W0YhLz_EQgFUQMOhoSJx-47" value="" style="edgeStyle=orthogonalEdgeStyle;rounded=0;orthogonalLoop=1;jettySize=auto;html=1;" parent="dr038-qqmDyIK8T8McZE-1" source="W0YhLz_EQgFUQMOhoSJx-46" edge="1">
                    <mxGeometry relative="1" as="geometry">
                        <mxPoint x="150" y="560" as="targetPoint"/>
                    </mxGeometry>
                </mxCell>
                <mxCell id="W0YhLz_EQgFUQMOhoSJx-48" style="edgeStyle=orthogonalEdgeStyle;rounded=0;orthogonalLoop=1;jettySize=auto;html=1;" parent="dr038-qqmDyIK8T8McZE-1" source="W0YhLz_EQgFUQMOhoSJx-46" edge="1">
                    <mxGeometry relative="1" as="geometry">
                        <mxPoint x="150" y="850" as="targetPoint"/>
                        <Array as="points">
                            <mxPoint x="280" y="470"/>
                            <mxPoint x="280" y="850"/>
                            <mxPoint x="150" y="850"/>
                        </Array>
                    </mxGeometry>
                </mxCell>
                <mxCell id="W0YhLz_EQgFUQMOhoSJx-46" value="&lt;span style=&quot;text-align: left&quot;&gt;LengthNote16th&lt;br&gt;フラグ&lt;/span&gt;" style="strokeWidth=2;html=1;shape=mxgraph.flowchart.decision;whiteSpace=wrap;" parent="dr038-qqmDyIK8T8McZE-1" vertex="1">
                    <mxGeometry x="80" y="420" width="140" height="100" as="geometry"/>
                </mxCell>
                <mxCell id="W0YhLz_EQgFUQMOhoSJx-49" value="ON" style="text;html=1;align=center;verticalAlign=middle;resizable=0;points=[];autosize=1;" parent="dr038-qqmDyIK8T8McZE-1" vertex="1">
                    <mxGeometry x="159" y="520" width="30" height="20" as="geometry"/>
                </mxCell>
                <mxCell id="W0YhLz_EQgFUQMOhoSJx-50" value="OFF" style="text;html=1;align=center;verticalAlign=middle;resizable=0;points=[];autosize=1;" parent="dr038-qqmDyIK8T8McZE-1" vertex="1">
                    <mxGeometry x="215" y="450" width="40" height="20" as="geometry"/>
                </mxCell>
                <mxCell id="wUmr7rL4XI4OjzSfEoUU-0" value="LengthNote16thフラグ&lt;br&gt;&lt;br&gt;ブザーの更新シートで16分音符分の時間経過を確認するために使用&lt;br&gt;タイマでフラグがONになる&lt;br&gt;ブザーの更新シートでOFFになる" style="shape=note;whiteSpace=wrap;html=1;size=14;verticalAlign=top;align=left;spacingTop=-6;" parent="dr038-qqmDyIK8T8McZE-1" vertex="1">
                    <mxGeometry x="320" y="440" width="170" height="130" as="geometry"/>
                </mxCell>
                <mxCell id="DAbxYG-DEQaKZM_AroCI-1" style="edgeStyle=orthogonalEdgeStyle;rounded=0;orthogonalLoop=1;jettySize=auto;html=1;" parent="dr038-qqmDyIK8T8McZE-1" target="dr038-qqmDyIK8T8McZE-22" edge="1">
                    <mxGeometry relative="1" as="geometry">
                        <mxPoint x="150" y="810" as="sourcePoint"/>
                    </mxGeometry>
                </mxCell>
                <mxCell id="G2oQgX6TiOGb2vG8f04e-0" value="&lt;span&gt;BGMManagerを更新&lt;/span&gt;" style="shape=process;whiteSpace=wrap;html=1;backgroundOutline=1;" parent="dr038-qqmDyIK8T8McZE-1" vertex="1">
                    <mxGeometry x="90" y="560" width="120" height="60" as="geometry"/>
                </mxCell>
                <mxCell id="G2oQgX6TiOGb2vG8f04e-1" value="&lt;span&gt;SEManagerを更新&lt;/span&gt;" style="shape=process;whiteSpace=wrap;html=1;backgroundOutline=1;" parent="dr038-qqmDyIK8T8McZE-1" vertex="1">
                    <mxGeometry x="90" y="660" width="120" height="60" as="geometry"/>
                </mxCell>
                <mxCell id="G2oQgX6TiOGb2vG8f04e-2" value="&lt;span&gt;LengthNote16thフラグを下げる&lt;/span&gt;" style="rounded=0;whiteSpace=wrap;html=1;" parent="dr038-qqmDyIK8T8McZE-1" vertex="1">
                    <mxGeometry x="90" y="750" width="120" height="60" as="geometry"/>
                </mxCell>
                <mxCell id="Gq7NbYDYflofkn9D83_M-3" style="edgeStyle=orthogonalEdgeStyle;rounded=0;orthogonalLoop=1;jettySize=auto;html=1;" parent="dr038-qqmDyIK8T8McZE-1" source="Gq7NbYDYflofkn9D83_M-0" target="W0YhLz_EQgFUQMOhoSJx-31" edge="1">
                    <mxGeometry relative="1" as="geometry"/>
                </mxCell>
                <mxCell id="Gq7NbYDYflofkn9D83_M-6" style="edgeStyle=orthogonalEdgeStyle;rounded=0;orthogonalLoop=1;jettySize=auto;html=1;" parent="dr038-qqmDyIK8T8McZE-1" source="Gq7NbYDYflofkn9D83_M-0" target="Gq7NbYDYflofkn9D83_M-4" edge="1">
                    <mxGeometry relative="1" as="geometry"/>
                </mxCell>
                <mxCell id="Gq7NbYDYflofkn9D83_M-0" value="現在再生されているか？&lt;br&gt;IsPlaySE" style="strokeWidth=2;html=1;shape=mxgraph.flowchart.decision;whiteSpace=wrap;" parent="dr038-qqmDyIK8T8McZE-1" vertex="1">
                    <mxGeometry x="290" y="1530" width="180" height="100" as="geometry"/>
                </mxCell>
                <mxCell id="Gq7NbYDYflofkn9D83_M-1" value="ON" style="text;html=1;align=center;verticalAlign=middle;resizable=0;points=[];autosize=1;" parent="dr038-qqmDyIK8T8McZE-1" vertex="1">
                    <mxGeometry x="460" y="1550" width="30" height="20" as="geometry"/>
                </mxCell>
                <mxCell id="Gq7NbYDYflofkn9D83_M-2" value="OFF" style="text;html=1;align=center;verticalAlign=middle;resizable=0;points=[];autosize=1;" parent="dr038-qqmDyIK8T8McZE-1" vertex="1">
                    <mxGeometry x="380" y="1630" width="40" height="20" as="geometry"/>
                </mxCell>
                <mxCell id="Gq7NbYDYflofkn9D83_M-5" style="edgeStyle=orthogonalEdgeStyle;rounded=0;orthogonalLoop=1;jettySize=auto;html=1;" parent="dr038-qqmDyIK8T8McZE-1" source="Gq7NbYDYflofkn9D83_M-4" edge="1">
                    <mxGeometry relative="1" as="geometry">
                        <mxPoint x="390" y="2060" as="targetPoint"/>
                        <Array as="points">
                            <mxPoint x="540" y="2060"/>
                        </Array>
                    </mxGeometry>
                </mxCell>
                <mxCell id="Gq7NbYDYflofkn9D83_M-4" value="SEの&lt;br&gt;currentNotePos&lt;br&gt;を最初の位置へ&lt;br&gt;クリア" style="rounded=1;whiteSpace=wrap;html=1;absoluteArcSize=1;arcSize=14;strokeWidth=2;" parent="dr038-qqmDyIK8T8McZE-1" vertex="1">
                    <mxGeometry x="490" y="1690" width="100" height="70" as="geometry"/>
                </mxCell>
                <mxCell id="Gq7NbYDYflofkn9D83_M-7" value="既に再生されている時に、再度効果音が再生しようとした時の挙動&lt;br&gt;&lt;br&gt;再生位置を最初にする" style="shape=note;whiteSpace=wrap;html=1;size=14;verticalAlign=top;align=left;spacingTop=-6;" parent="dr038-qqmDyIK8T8McZE-1" vertex="1">
                    <mxGeometry x="600" y="1689" width="110" height="101" as="geometry"/>
                </mxCell>
                <mxCell id="-qMV9gJSECSFKtpwPz8T-0" value="〇BGMStartFlg、SEStartFlg&lt;br&gt;&lt;br&gt;BGM、効果音それぞれを再生したい位置で、PlayBGM()、PlaySE()関数を通してONにする" style="shape=note;whiteSpace=wrap;html=1;size=14;verticalAlign=top;align=left;spacingTop=-6;" parent="dr038-qqmDyIK8T8McZE-1" vertex="1">
                    <mxGeometry x="520" y="1300" width="180" height="80" as="geometry"/>
                </mxCell>
                <mxCell id="-qMV9gJSECSFKtpwPz8T-1" value="〇BGMStopFlg、SEStopFlg&lt;br&gt;&lt;br&gt;BGM、効果音それぞれを停止したい位置で、StopBGM()、StopSE()関数を通してONにする" style="shape=note;whiteSpace=wrap;html=1;size=14;verticalAlign=top;align=left;spacingTop=-6;" parent="dr038-qqmDyIK8T8McZE-1" vertex="1">
                    <mxGeometry x="570" y="2170" width="180" height="80" as="geometry"/>
                </mxCell>
                <mxCell id="dOXR6lsI84Fi3N2v8vNx-1" value="" style="edgeStyle=orthogonalEdgeStyle;rounded=0;orthogonalLoop=1;jettySize=auto;html=1;entryX=0.5;entryY=0;entryDx=0;entryDy=0;entryPerimeter=0;" parent="dr038-qqmDyIK8T8McZE-1" source="W0YhLz_EQgFUQMOhoSJx-9" edge="1">
                    <mxGeometry relative="1" as="geometry">
                        <mxPoint x="140" y="1930" as="targetPoint"/>
                        <mxPoint x="140" y="1880" as="sourcePoint"/>
                    </mxGeometry>
                </mxCell>
                <mxCell id="dOXR6lsI84Fi3N2v8vNx-5" value="&lt;span&gt;PWMを開始する&lt;/span&gt;" style="shape=process;whiteSpace=wrap;html=1;backgroundOutline=1;" parent="dr038-qqmDyIK8T8McZE-1" vertex="1">
                    <mxGeometry x="79" y="1930" width="120" height="60" as="geometry"/>
                </mxCell>
                <mxCell id="dOXR6lsI84Fi3N2v8vNx-6" value="&lt;span&gt;PWMを開始する&lt;/span&gt;" style="shape=process;whiteSpace=wrap;html=1;backgroundOutline=1;" parent="dr038-qqmDyIK8T8McZE-1" vertex="1">
                    <mxGeometry x="320" y="1930" width="120" height="60" as="geometry"/>
                </mxCell>
                <mxCell id="dOXR6lsI84Fi3N2v8vNx-7" value="&lt;span&gt;PWMを開始する&lt;/span&gt;" style="shape=process;whiteSpace=wrap;html=1;backgroundOutline=1;" parent="dr038-qqmDyIK8T8McZE-1" vertex="1">
                    <mxGeometry x="80" y="2540" width="120" height="60" as="geometry"/>
                </mxCell>
                <mxCell id="dOXR6lsI84Fi3N2v8vNx-9" value="&lt;span&gt;PWMを開始する&lt;/span&gt;" style="shape=process;whiteSpace=wrap;html=1;backgroundOutline=1;" parent="dr038-qqmDyIK8T8McZE-1" vertex="1">
                    <mxGeometry x="320" y="2540" width="120" height="60" as="geometry"/>
                </mxCell>
            </root>
        </mxGraphModel>
    </diagram>
    <diagram name="BGMManagerを更新" id="ABgosr9o0sSPcyc1PMzt">
        <mxGraphModel dx="610" dy="618" grid="1" gridSize="10" guides="1" tooltips="1" connect="1" arrows="1" fold="1" page="1" pageScale="1" pageWidth="827" pageHeight="1169" math="0" shadow="0">
            &#xa;            
            <root>
                &#xa;                
                <mxCell id="4Xr6yz0XrZvKhtDLW0RJ-0"/>
                &#xa;                
                <mxCell id="4Xr6yz0XrZvKhtDLW0RJ-1" parent="4Xr6yz0XrZvKhtDLW0RJ-0"/>
                &#xa;                
                <mxCell id="4Xr6yz0XrZvKhtDLW0RJ-2" value="" style="edgeStyle=orthogonalEdgeStyle;rounded=0;orthogonalLoop=1;jettySize=auto;html=1;" parent="4Xr6yz0XrZvKhtDLW0RJ-1" source="4Xr6yz0XrZvKhtDLW0RJ-3" target="4Xr6yz0XrZvKhtDLW0RJ-31" edge="1">
                    &#xa;                    
                    <mxGeometry relative="1" as="geometry">
                        &#xa;                        
                        <mxPoint x="186" y="310" as="targetPoint"/>
                        &#xa;                    
                    </mxGeometry>
                    &#xa;                
                </mxCell>
                &#xa;                
                <mxCell id="4Xr6yz0XrZvKhtDLW0RJ-3" value="START" style="strokeWidth=2;html=1;shape=mxgraph.flowchart.terminator;whiteSpace=wrap;" parent="4Xr6yz0XrZvKhtDLW0RJ-1" vertex="1">
                    &#xa;                    
                    <mxGeometry x="136" y="210" width="100" height="60" as="geometry"/>
                    &#xa;                
                </mxCell>
                &#xa;                
                <mxCell id="4Xr6yz0XrZvKhtDLW0RJ-4" value="&lt;span style=&quot;text-align: center&quot;&gt;BGMManagerを更新&lt;/span&gt;" style="shape=note;whiteSpace=wrap;html=1;size=14;verticalAlign=top;align=left;spacingTop=-6;" parent="4Xr6yz0XrZvKhtDLW0RJ-1" vertex="1">
                    &#xa;                    
                    <mxGeometry x="121" y="150" width="130" height="40" as="geometry"/>
                    &#xa;                
                </mxCell>
                &#xa;                
                <mxCell id="4Xr6yz0XrZvKhtDLW0RJ-29" value="" style="edgeStyle=orthogonalEdgeStyle;rounded=0;orthogonalLoop=1;jettySize=auto;html=1;" parent="4Xr6yz0XrZvKhtDLW0RJ-1" source="4Xr6yz0XrZvKhtDLW0RJ-31" target="4Xr6yz0XrZvKhtDLW0RJ-34" edge="1">
                    &#xa;                    
                    <mxGeometry relative="1" as="geometry"/>
                    &#xa;                
                </mxCell>
                &#xa;                
                <mxCell id="4Xr6yz0XrZvKhtDLW0RJ-30" style="edgeStyle=orthogonalEdgeStyle;rounded=0;orthogonalLoop=1;jettySize=auto;html=1;" parent="4Xr6yz0XrZvKhtDLW0RJ-1" source="4Xr6yz0XrZvKhtDLW0RJ-31" edge="1">
                    &#xa;                    
                    <mxGeometry relative="1" as="geometry">
                        &#xa;                        
                        <mxPoint x="186" y="1370" as="targetPoint"/>
                        &#xa;                        
                        <Array as="points">
                            &#xa;                            
                            <mxPoint x="490" y="370"/>
                            &#xa;                            
                            <mxPoint x="490" y="1370"/>
                            &#xa;                            
                            <mxPoint x="186" y="1370"/>
                            &#xa;                        
                        </Array>
                        &#xa;                    
                    </mxGeometry>
                    &#xa;                
                </mxCell>
                &#xa;                
                <mxCell id="4Xr6yz0XrZvKhtDLW0RJ-31" value="現在BGMが&lt;br&gt;再生されているか&lt;br&gt;IsPlayBGM" style="strokeWidth=2;html=1;shape=mxgraph.flowchart.decision;whiteSpace=wrap;" parent="4Xr6yz0XrZvKhtDLW0RJ-1" vertex="1">
                    &#xa;                    
                    <mxGeometry x="72" y="320" width="228" height="100" as="geometry"/>
                    &#xa;                
                </mxCell>
                &#xa;                
                <mxCell id="4Xr6yz0XrZvKhtDLW0RJ-32" value="" style="edgeStyle=orthogonalEdgeStyle;rounded=0;orthogonalLoop=1;jettySize=auto;html=1;" parent="4Xr6yz0XrZvKhtDLW0RJ-1" source="4Xr6yz0XrZvKhtDLW0RJ-34" edge="1">
                    &#xa;                    
                    <mxGeometry relative="1" as="geometry">
                        &#xa;                        
                        <mxPoint x="186" y="650" as="targetPoint"/>
                        &#xa;                    
                    </mxGeometry>
                    &#xa;                
                </mxCell>
                &#xa;                
                <mxCell id="4Xr6yz0XrZvKhtDLW0RJ-33" style="edgeStyle=orthogonalEdgeStyle;rounded=0;orthogonalLoop=1;jettySize=auto;html=1;" parent="4Xr6yz0XrZvKhtDLW0RJ-1" source="4Xr6yz0XrZvKhtDLW0RJ-34" edge="1">
                    &#xa;                    
                    <mxGeometry relative="1" as="geometry">
                        &#xa;                        
                        <mxPoint x="186" y="790" as="targetPoint"/>
                        &#xa;                        
                        <Array as="points">
                            &#xa;                            
                            <mxPoint x="330" y="535"/>
                            &#xa;                            
                            <mxPoint x="330" y="790"/>
                            &#xa;                        
                        </Array>
                        &#xa;                    
                    </mxGeometry>
                    &#xa;                
                </mxCell>
                &#xa;                
                <mxCell id="4Xr6yz0XrZvKhtDLW0RJ-34" value="BGMの再生位置は終端か？&lt;br&gt;BGMNotePos" style="strokeWidth=2;html=1;shape=mxgraph.flowchart.decision;whiteSpace=wrap;" parent="4Xr6yz0XrZvKhtDLW0RJ-1" vertex="1">
                    &#xa;                    
                    <mxGeometry x="72" y="485" width="228" height="100" as="geometry"/>
                    &#xa;                
                </mxCell>
                &#xa;                
                <mxCell id="4Xr6yz0XrZvKhtDLW0RJ-35" value="YES" style="text;html=1;align=center;verticalAlign=middle;resizable=0;points=[];autosize=1;" parent="4Xr6yz0XrZvKhtDLW0RJ-1" vertex="1">
                    &#xa;                    
                    <mxGeometry x="196" y="430" width="40" height="20" as="geometry"/>
                    &#xa;                
                </mxCell>
                &#xa;                
                <mxCell id="4Xr6yz0XrZvKhtDLW0RJ-36" value="NO" style="text;html=1;align=center;verticalAlign=middle;resizable=0;points=[];autosize=1;" parent="4Xr6yz0XrZvKhtDLW0RJ-1" vertex="1">
                    &#xa;                    
                    <mxGeometry x="315" y="340" width="30" height="20" as="geometry"/>
                    &#xa;                
                </mxCell>
                &#xa;                
                <mxCell id="4Xr6yz0XrZvKhtDLW0RJ-37" value="YES" style="text;html=1;align=center;verticalAlign=middle;resizable=0;points=[];autosize=1;" parent="4Xr6yz0XrZvKhtDLW0RJ-1" vertex="1">
                    &#xa;                    
                    <mxGeometry x="190" y="585" width="40" height="20" as="geometry"/>
                    &#xa;                
                </mxCell>
                &#xa;                
                <mxCell id="4Xr6yz0XrZvKhtDLW0RJ-38" value="" style="edgeStyle=orthogonalEdgeStyle;rounded=0;orthogonalLoop=1;jettySize=auto;html=1;" parent="4Xr6yz0XrZvKhtDLW0RJ-1" target="4Xr6yz0XrZvKhtDLW0RJ-43" edge="1">
                    &#xa;                    
                    <mxGeometry relative="1" as="geometry">
                        &#xa;                        
                        <mxPoint x="186" y="750" as="sourcePoint"/>
                        &#xa;                    
                    </mxGeometry>
                    &#xa;                
                </mxCell>
                &#xa;                
                <mxCell id="4Xr6yz0XrZvKhtDLW0RJ-39" style="edgeStyle=orthogonalEdgeStyle;rounded=0;orthogonalLoop=1;jettySize=auto;html=1;exitX=0.5;exitY=1;exitDx=0;exitDy=0;" parent="4Xr6yz0XrZvKhtDLW0RJ-1" source="IRa_dM7qriDIy9-uKe1Z-0" target="4Xr6yz0XrZvKhtDLW0RJ-43" edge="1">
                    &#xa;                    
                    <mxGeometry relative="1" as="geometry">
                        &#xa;                        
                        <mxPoint x="186" y="750" as="sourcePoint"/>
                        &#xa;                    
                    </mxGeometry>
                    &#xa;                
                </mxCell>
                &#xa;                
                <mxCell id="4Xr6yz0XrZvKhtDLW0RJ-42" style="edgeStyle=orthogonalEdgeStyle;rounded=0;orthogonalLoop=1;jettySize=auto;html=1;entryX=0.5;entryY=0;entryDx=0;entryDy=0;" parent="4Xr6yz0XrZvKhtDLW0RJ-1" source="4Xr6yz0XrZvKhtDLW0RJ-43" target="IRa_dM7qriDIy9-uKe1Z-1" edge="1">
                    &#xa;                    
                    <mxGeometry relative="1" as="geometry">
                        &#xa;                        
                        <Array as="points">
                            &#xa;                            
                            <mxPoint x="382" y="880"/>
                            &#xa;                        
                        </Array>
                        &#xa;                        
                        <mxPoint x="380" y="1110" as="targetPoint"/>
                        &#xa;                    
                    </mxGeometry>
                    &#xa;                
                </mxCell>
                &#xa;                
                <mxCell id="0Jzsjs30BkO8wgTDrF6F-7" value="" style="edgeStyle=orthogonalEdgeStyle;rounded=0;orthogonalLoop=1;jettySize=auto;html=1;" parent="4Xr6yz0XrZvKhtDLW0RJ-1" source="4Xr6yz0XrZvKhtDLW0RJ-43" target="0Jzsjs30BkO8wgTDrF6F-4" edge="1">
                    &#xa;                    
                    <mxGeometry relative="1" as="geometry"/>
                    &#xa;                
                </mxCell>
                &#xa;                
                <mxCell id="4Xr6yz0XrZvKhtDLW0RJ-43" value="現在選択されている音符の長さ分&lt;br&gt;時間は経過したか？&lt;br&gt;currentNoteLength &amp;lt;= 0" style="strokeWidth=2;html=1;shape=mxgraph.flowchart.decision;whiteSpace=wrap;" parent="4Xr6yz0XrZvKhtDLW0RJ-1" vertex="1">
                    &#xa;                    
                    <mxGeometry x="40" y="820" width="292" height="120" as="geometry"/>
                    &#xa;                
                </mxCell>
                &#xa;                
                <mxCell id="4Xr6yz0XrZvKhtDLW0RJ-44" value="NO" style="text;html=1;align=center;verticalAlign=middle;resizable=0;points=[];autosize=1;" parent="4Xr6yz0XrZvKhtDLW0RJ-1" vertex="1">
                    &#xa;                    
                    <mxGeometry x="300" y="510" width="30" height="20" as="geometry"/>
                    &#xa;                
                </mxCell>
                &#xa;                
                <mxCell id="4Xr6yz0XrZvKhtDLW0RJ-49" value="" style="edgeStyle=orthogonalEdgeStyle;rounded=0;orthogonalLoop=1;jettySize=auto;html=1;exitX=0.5;exitY=1;exitDx=0;exitDy=0;" parent="4Xr6yz0XrZvKhtDLW0RJ-1" source="0Jzsjs30BkO8wgTDrF6F-5" target="4Xr6yz0XrZvKhtDLW0RJ-51" edge="1">
                    &#xa;                    
                    <mxGeometry relative="1" as="geometry">
                        &#xa;                        
                        <mxPoint x="186" y="1320" as="sourcePoint"/>
                        &#xa;                    
                    </mxGeometry>
                    &#xa;                
                </mxCell>
                &#xa;                
                <mxCell id="4Xr6yz0XrZvKhtDLW0RJ-51" value="END" style="strokeWidth=2;html=1;shape=mxgraph.flowchart.terminator;whiteSpace=wrap;" parent="4Xr6yz0XrZvKhtDLW0RJ-1" vertex="1">
                    &#xa;                    
                    <mxGeometry x="136" y="1460" width="100" height="60" as="geometry"/>
                    &#xa;                
                </mxCell>
                &#xa;                
                <mxCell id="4Xr6yz0XrZvKhtDLW0RJ-53" style="edgeStyle=orthogonalEdgeStyle;rounded=0;orthogonalLoop=1;jettySize=auto;html=1;exitX=0.5;exitY=1;exitDx=0;exitDy=0;" parent="4Xr6yz0XrZvKhtDLW0RJ-1" source="IRa_dM7qriDIy9-uKe1Z-1" edge="1">
                    &#xa;                    
                    <mxGeometry relative="1" as="geometry">
                        &#xa;                        
                        <mxPoint x="190" y="1330" as="targetPoint"/>
                        &#xa;                        
                        <Array as="points">
                            &#xa;                            
                            <mxPoint x="382" y="1330"/>
                            &#xa;                            
                            <mxPoint x="190" y="1330"/>
                            &#xa;                        
                        </Array>
                        &#xa;                        
                        <mxPoint x="380" y="1210" as="sourcePoint"/>
                        &#xa;                    
                    </mxGeometry>
                    &#xa;                
                </mxCell>
                &#xa;                
                <mxCell id="4Xr6yz0XrZvKhtDLW0RJ-55" value="NO" style="text;html=1;align=center;verticalAlign=middle;resizable=0;points=[];autosize=1;" parent="4Xr6yz0XrZvKhtDLW0RJ-1" vertex="1">
                    &#xa;                    
                    <mxGeometry x="322" y="860" width="30" height="20" as="geometry"/>
                    &#xa;                
                </mxCell>
                &#xa;                
                <mxCell id="0Jzsjs30BkO8wgTDrF6F-1" value="" style="edgeStyle=orthogonalEdgeStyle;rounded=0;orthogonalLoop=1;jettySize=auto;html=1;exitX=0.5;exitY=1;exitDx=0;exitDy=0;" parent="4Xr6yz0XrZvKhtDLW0RJ-1" source="IRa_dM7qriDIy9-uKe1Z-2" target="0Jzsjs30BkO8wgTDrF6F-5" edge="1">
                    &#xa;                    
                    <mxGeometry relative="1" as="geometry">
                        &#xa;                        
                        <mxPoint x="186" y="1205" as="sourcePoint"/>
                        &#xa;                    
                    </mxGeometry>
                    &#xa;                
                </mxCell>
                &#xa;                
                <mxCell id="0Jzsjs30BkO8wgTDrF6F-3" value="" style="edgeStyle=orthogonalEdgeStyle;rounded=0;orthogonalLoop=1;jettySize=auto;html=1;" parent="4Xr6yz0XrZvKhtDLW0RJ-1" source="0Jzsjs30BkO8wgTDrF6F-4" edge="1">
                    &#xa;                    
                    <mxGeometry relative="1" as="geometry">
                        &#xa;                        
                        <mxPoint x="186" y="1105" as="targetPoint"/>
                        &#xa;                    
                    </mxGeometry>
                    &#xa;                
                </mxCell>
                &#xa;                
                <mxCell id="0Jzsjs30BkO8wgTDrF6F-4" value="BGMNotePos を1増やす" style="shape=process;whiteSpace=wrap;html=1;backgroundOutline=1;" parent="4Xr6yz0XrZvKhtDLW0RJ-1" vertex="1">
                    &#xa;                    
                    <mxGeometry x="126" y="990" width="120" height="60" as="geometry"/>
                    &#xa;                
                </mxCell>
                &#xa;                
                <mxCell id="0Jzsjs30BkO8wgTDrF6F-5" value="音符の高さに合わせて、タイマの周期を変える" style="shape=process;whiteSpace=wrap;html=1;backgroundOutline=1;" parent="4Xr6yz0XrZvKhtDLW0RJ-1" vertex="1">
                    &#xa;                    
                    <mxGeometry x="126" y="1230" width="120" height="60" as="geometry"/>
                    &#xa;                
                </mxCell>
                &#xa;                
                <mxCell id="0Jzsjs30BkO8wgTDrF6F-6" value="音符&lt;br&gt;&lt;br&gt;・音の長さ（Length）&lt;br&gt;・音の高さ&lt;br&gt;（Pich）&lt;br&gt;&lt;br&gt;を保持している配列" style="shape=note;whiteSpace=wrap;html=1;size=14;verticalAlign=top;align=left;spacingTop=-6;" parent="4Xr6yz0XrZvKhtDLW0RJ-1" vertex="1">
                    &#xa;                    
                    <mxGeometry x="10" y="1090" width="100" height="130" as="geometry"/>
                    &#xa;                
                </mxCell>
                &#xa;                
                <mxCell id="0Jzsjs30BkO8wgTDrF6F-8" value="&lt;span style=&quot;text-align: center&quot;&gt;現在再生している楽譜の中で&lt;/span&gt;&lt;br style=&quot;text-align: center&quot;&gt;&lt;span style=&quot;text-align: center&quot;&gt;何個目の音符を選択しているかを表す&lt;/span&gt;&lt;br style=&quot;text-align: center&quot;&gt;&lt;br style=&quot;text-align: center&quot;&gt;&lt;span style=&quot;text-align: center&quot;&gt;BGMNotePos&lt;/span&gt;&lt;br style=&quot;text-align: center&quot;&gt;&lt;span style=&quot;text-align: center&quot;&gt;&lt;br&gt;現在再生している音符の中で&lt;br&gt;16分音符で何個分の位置か表す&lt;br&gt;&lt;br&gt;currentNoteLength&lt;br&gt;&lt;/span&gt;" style="shape=note;whiteSpace=wrap;html=1;size=14;verticalAlign=top;align=left;spacingTop=-6;" parent="4Xr6yz0XrZvKhtDLW0RJ-1" vertex="1">
                    &#xa;                    
                    <mxGeometry x="540" y="870" width="200" height="160" as="geometry"/>
                    &#xa;                
                </mxCell>
                &#xa;                
                <mxCell id="lUoSfXtSw4KU0rREumNo-0" value="YES" style="text;html=1;align=center;verticalAlign=middle;resizable=0;points=[];autosize=1;" parent="4Xr6yz0XrZvKhtDLW0RJ-1" vertex="1">
                    &#xa;                    
                    <mxGeometry x="190" y="940" width="40" height="20" as="geometry"/>
                    &#xa;                
                </mxCell>
                &#xa;                
                <mxCell id="IRa_dM7qriDIy9-uKe1Z-0" value="&lt;span&gt;BGMの再生位置を&lt;br&gt;最初へ戻す&lt;/span&gt;" style="rounded=0;whiteSpace=wrap;html=1;" parent="4Xr6yz0XrZvKhtDLW0RJ-1" vertex="1">
                    &#xa;                    
                    <mxGeometry x="126" y="650" width="120" height="60" as="geometry"/>
                    &#xa;                
                </mxCell>
                &#xa;                
                <mxCell id="IRa_dM7qriDIy9-uKe1Z-1" value="&lt;span&gt;currentNoteLengthを&lt;/span&gt;&lt;br&gt;&lt;span&gt;1下げる&lt;/span&gt;" style="rounded=0;whiteSpace=wrap;html=1;" parent="4Xr6yz0XrZvKhtDLW0RJ-1" vertex="1">
                    &#xa;                    
                    <mxGeometry x="322" y="1130" width="120" height="60" as="geometry"/>
                    &#xa;                
                </mxCell>
                &#xa;                
                <mxCell id="IRa_dM7qriDIy9-uKe1Z-2" value="&lt;span&gt;選択された音符の長さをcurrentNoteLengthにセットする&lt;/span&gt;" style="rounded=0;whiteSpace=wrap;html=1;" parent="4Xr6yz0XrZvKhtDLW0RJ-1" vertex="1">
                    &#xa;                    
                    <mxGeometry x="126" y="1110" width="120" height="60" as="geometry"/>
                    &#xa;                
                </mxCell>
                &#xa;            
            </root>
            &#xa;        
        </mxGraphModel>
    </diagram>
    <diagram name="SEManagerを更新" id="x2AewCGYplKAS_UKG3pP">
        <mxGraphModel dx="627" dy="618" grid="1" gridSize="10" guides="1" tooltips="1" connect="1" arrows="1" fold="1" page="1" pageScale="1" pageWidth="827" pageHeight="1169" math="0" shadow="0">
            &#xa;            &#xa;            &#xa;            
            <root>
                &#xa;                &#xa;                &#xa;                
                <mxCell id="S-jQ02MztudYQy0zt7sg-0"/>
                &#xa;                &#xa;                &#xa;                
                <mxCell id="S-jQ02MztudYQy0zt7sg-1" parent="S-jQ02MztudYQy0zt7sg-0"/>
                &#xa;                &#xa;                &#xa;                
                <mxCell id="S-jQ02MztudYQy0zt7sg-2" value="" style="edgeStyle=orthogonalEdgeStyle;rounded=0;orthogonalLoop=1;jettySize=auto;html=1;" parent="S-jQ02MztudYQy0zt7sg-1" source="S-jQ02MztudYQy0zt7sg-3" target="S-jQ02MztudYQy0zt7sg-7" edge="1">
                    &#xa;                    &#xa;                    &#xa;                    
                    <mxGeometry relative="1" as="geometry">
                        &#xa;                        &#xa;                        &#xa;                        
                        <mxPoint x="186" y="310" as="targetPoint"/>
                        &#xa;                        &#xa;                    &#xa;                    
                    </mxGeometry>
                    &#xa;                    &#xa;                &#xa;                
                </mxCell>
                &#xa;                &#xa;                &#xa;                
                <mxCell id="S-jQ02MztudYQy0zt7sg-3" value="START" style="strokeWidth=2;html=1;shape=mxgraph.flowchart.terminator;whiteSpace=wrap;" parent="S-jQ02MztudYQy0zt7sg-1" vertex="1">
                    &#xa;                    &#xa;                    &#xa;                    
                    <mxGeometry x="136" y="210" width="100" height="60" as="geometry"/>
                    &#xa;                    &#xa;                &#xa;                
                </mxCell>
                &#xa;                &#xa;                &#xa;                
                <mxCell id="S-jQ02MztudYQy0zt7sg-4" value="&lt;span style=&quot;text-align: center&quot;&gt;SEManagerを更新&lt;/span&gt;" style="shape=note;whiteSpace=wrap;html=1;size=14;verticalAlign=top;align=left;spacingTop=-6;" parent="S-jQ02MztudYQy0zt7sg-1" vertex="1">
                    &#xa;                    &#xa;                    &#xa;                    
                    <mxGeometry x="120" y="150" width="130" height="40" as="geometry"/>
                    &#xa;                    &#xa;                &#xa;                
                </mxCell>
                &#xa;                &#xa;                &#xa;                
                <mxCell id="S-jQ02MztudYQy0zt7sg-5" value="" style="edgeStyle=orthogonalEdgeStyle;rounded=0;orthogonalLoop=1;jettySize=auto;html=1;" parent="S-jQ02MztudYQy0zt7sg-1" source="S-jQ02MztudYQy0zt7sg-7" target="S-jQ02MztudYQy0zt7sg-10" edge="1">
                    &#xa;                    &#xa;                    &#xa;                    
                    <mxGeometry relative="1" as="geometry"/>
                    &#xa;                    &#xa;                &#xa;                
                </mxCell>
                &#xa;                &#xa;                &#xa;                
                <mxCell id="S-jQ02MztudYQy0zt7sg-6" style="edgeStyle=orthogonalEdgeStyle;rounded=0;orthogonalLoop=1;jettySize=auto;html=1;" parent="S-jQ02MztudYQy0zt7sg-1" source="S-jQ02MztudYQy0zt7sg-7" edge="1">
                    &#xa;                    &#xa;                    &#xa;                    
                    <mxGeometry relative="1" as="geometry">
                        &#xa;                        &#xa;                        &#xa;                        
                        <mxPoint x="186" y="1380" as="targetPoint"/>
                        &#xa;                        &#xa;                        &#xa;                        
                        <Array as="points">
                            &#xa;                            &#xa;                            &#xa;                            
                            <mxPoint x="490" y="370"/>
                            &#xa;                            &#xa;                            &#xa;                            
                            <mxPoint x="490" y="1380"/>
                            &#xa;                            &#xa;                            &#xa;                            
                            <mxPoint x="186" y="1380"/>
                            &#xa;                            &#xa;                        &#xa;                        
                        </Array>
                        &#xa;                        &#xa;                    &#xa;                    
                    </mxGeometry>
                    &#xa;                    &#xa;                &#xa;                
                </mxCell>
                &#xa;                &#xa;                &#xa;                
                <mxCell id="S-jQ02MztudYQy0zt7sg-7" value="現在SEが&lt;br&gt;再生されているか" style="strokeWidth=2;html=1;shape=mxgraph.flowchart.decision;whiteSpace=wrap;" parent="S-jQ02MztudYQy0zt7sg-1" vertex="1">
                    &#xa;                    &#xa;                    &#xa;                    
                    <mxGeometry x="72" y="320" width="228" height="100" as="geometry"/>
                    &#xa;                    &#xa;                &#xa;                
                </mxCell>
                &#xa;                &#xa;                &#xa;                
                <mxCell id="S-jQ02MztudYQy0zt7sg-8" value="" style="edgeStyle=orthogonalEdgeStyle;rounded=0;orthogonalLoop=1;jettySize=auto;html=1;" parent="S-jQ02MztudYQy0zt7sg-1" source="S-jQ02MztudYQy0zt7sg-10" target="S-jQ02MztudYQy0zt7sg-19" edge="1">
                    &#xa;                    &#xa;                    &#xa;                    
                    <mxGeometry relative="1" as="geometry">
                        &#xa;                        &#xa;                        &#xa;                        
                        <mxPoint x="186" y="650" as="targetPoint"/>
                        &#xa;                        &#xa;                    &#xa;                    
                    </mxGeometry>
                    &#xa;                    &#xa;                &#xa;                
                </mxCell>
                &#xa;                &#xa;                &#xa;                
                <mxCell id="V3O2MATo2yL5r2en-jel-1" style="edgeStyle=orthogonalEdgeStyle;rounded=0;orthogonalLoop=1;jettySize=auto;html=1;entryX=0.5;entryY=0;entryDx=0;entryDy=0;" parent="S-jQ02MztudYQy0zt7sg-1" source="S-jQ02MztudYQy0zt7sg-10" target="bf9LNsx6oVymAGHpaV8W-0" edge="1">
                    &#xa;                    &#xa;                    &#xa;                    
                    <mxGeometry relative="1" as="geometry">
                        &#xa;                        &#xa;                        &#xa;                        
                        <Array as="points">
                            &#xa;                            &#xa;                            &#xa;                            
                            <mxPoint x="360" y="535"/>
                            &#xa;                            &#xa;                            &#xa;                            
                            <mxPoint x="360" y="640"/>
                            &#xa;                            &#xa;                        &#xa;                        
                        </Array>
                        &#xa;                        &#xa;                        &#xa;                        
                        <mxPoint x="360" y="620" as="targetPoint"/>
                        &#xa;                        &#xa;                    &#xa;                    
                    </mxGeometry>
                    &#xa;                    &#xa;                &#xa;                
                </mxCell>
                &#xa;                &#xa;                &#xa;                
                <mxCell id="S-jQ02MztudYQy0zt7sg-10" value="SEの再生位置は終端か？&lt;br&gt;currentNotePos" style="strokeWidth=2;html=1;shape=mxgraph.flowchart.decision;whiteSpace=wrap;" parent="S-jQ02MztudYQy0zt7sg-1" vertex="1">
                    &#xa;                    &#xa;                    &#xa;                    
                    <mxGeometry x="72" y="485" width="228" height="100" as="geometry"/>
                    &#xa;                    &#xa;                &#xa;                
                </mxCell>
                &#xa;                &#xa;                &#xa;                
                <mxCell id="S-jQ02MztudYQy0zt7sg-11" value="YES" style="text;html=1;align=center;verticalAlign=middle;resizable=0;points=[];autosize=1;" parent="S-jQ02MztudYQy0zt7sg-1" vertex="1">
                    &#xa;                    &#xa;                    &#xa;                    
                    <mxGeometry x="196" y="430" width="40" height="20" as="geometry"/>
                    &#xa;                    &#xa;                &#xa;                
                </mxCell>
                &#xa;                &#xa;                &#xa;                
                <mxCell id="S-jQ02MztudYQy0zt7sg-12" value="NO" style="text;html=1;align=center;verticalAlign=middle;resizable=0;points=[];autosize=1;" parent="S-jQ02MztudYQy0zt7sg-1" vertex="1">
                    &#xa;                    &#xa;                    &#xa;                    
                    <mxGeometry x="315" y="340" width="30" height="20" as="geometry"/>
                    &#xa;                    &#xa;                &#xa;                
                </mxCell>
                &#xa;                &#xa;                &#xa;                
                <mxCell id="S-jQ02MztudYQy0zt7sg-13" value="YES" style="text;html=1;align=center;verticalAlign=middle;resizable=0;points=[];autosize=1;" parent="S-jQ02MztudYQy0zt7sg-1" vertex="1">
                    &#xa;                    &#xa;                    &#xa;                    
                    <mxGeometry x="292" y="510" width="40" height="20" as="geometry"/>
                    &#xa;                    &#xa;                &#xa;                
                </mxCell>
                &#xa;                &#xa;                &#xa;                
                <mxCell id="S-jQ02MztudYQy0zt7sg-17" style="edgeStyle=orthogonalEdgeStyle;rounded=0;orthogonalLoop=1;jettySize=auto;html=1;entryX=0.5;entryY=0;entryDx=0;entryDy=0;" parent="S-jQ02MztudYQy0zt7sg-1" source="S-jQ02MztudYQy0zt7sg-19" target="bf9LNsx6oVymAGHpaV8W-1" edge="1">
                    &#xa;                    &#xa;                    &#xa;                    
                    <mxGeometry relative="1" as="geometry">
                        &#xa;                        &#xa;                        &#xa;                        
                        <Array as="points">
                            &#xa;                            &#xa;                            &#xa;                            
                            <mxPoint x="382" y="820"/>
                            &#xa;                            &#xa;                        &#xa;                        
                        </Array>
                        &#xa;                        &#xa;                        &#xa;                        
                        <mxPoint x="380" y="1060" as="targetPoint"/>
                        &#xa;                        &#xa;                    &#xa;                    
                    </mxGeometry>
                    &#xa;                    &#xa;                &#xa;                
                </mxCell>
                &#xa;                &#xa;                &#xa;                
                <mxCell id="S-jQ02MztudYQy0zt7sg-18" value="" style="edgeStyle=orthogonalEdgeStyle;rounded=0;orthogonalLoop=1;jettySize=auto;html=1;" parent="S-jQ02MztudYQy0zt7sg-1" source="S-jQ02MztudYQy0zt7sg-19" edge="1">
                    &#xa;                    &#xa;                    &#xa;                    
                    <mxGeometry relative="1" as="geometry">
                        &#xa;                        &#xa;                        &#xa;                        
                        <mxPoint x="186" y="930" as="targetPoint"/>
                        &#xa;                        &#xa;                    &#xa;                    
                    </mxGeometry>
                    &#xa;                    &#xa;                &#xa;                
                </mxCell>
                &#xa;                &#xa;                &#xa;                
                <mxCell id="S-jQ02MztudYQy0zt7sg-19" value="現在選択されている音符の長さ分&lt;br&gt;時間は経過したか？&lt;br&gt;currentNoteLength &amp;lt;= 0" style="strokeWidth=2;html=1;shape=mxgraph.flowchart.decision;whiteSpace=wrap;" parent="S-jQ02MztudYQy0zt7sg-1" vertex="1">
                    &#xa;                    &#xa;                    &#xa;                    
                    <mxGeometry x="40" y="760" width="292" height="120" as="geometry"/>
                    &#xa;                    &#xa;                &#xa;                
                </mxCell>
                &#xa;                &#xa;                &#xa;                
                <mxCell id="S-jQ02MztudYQy0zt7sg-20" value="NO" style="text;html=1;align=center;verticalAlign=middle;resizable=0;points=[];autosize=1;" parent="S-jQ02MztudYQy0zt7sg-1" vertex="1">
                    &#xa;                    &#xa;                    &#xa;                    
                    <mxGeometry x="190" y="585" width="30" height="20" as="geometry"/>
                    &#xa;                    &#xa;                &#xa;                
                </mxCell>
                &#xa;                &#xa;                &#xa;                
                <mxCell id="S-jQ02MztudYQy0zt7sg-21" value="" style="edgeStyle=orthogonalEdgeStyle;rounded=0;orthogonalLoop=1;jettySize=auto;html=1;exitX=0.5;exitY=1;exitDx=0;exitDy=0;" parent="S-jQ02MztudYQy0zt7sg-1" source="65qzZDBLnOFpyqLNWlP5-24" target="S-jQ02MztudYQy0zt7sg-22" edge="1">
                    &#xa;                    &#xa;                    &#xa;                    
                    <mxGeometry relative="1" as="geometry">
                        &#xa;                        &#xa;                        &#xa;                        
                        <mxPoint x="186" y="1260" as="sourcePoint"/>
                        &#xa;                        &#xa;                    &#xa;                    
                    </mxGeometry>
                    &#xa;                    &#xa;                &#xa;                
                </mxCell>
                &#xa;                &#xa;                &#xa;                
                <mxCell id="S-jQ02MztudYQy0zt7sg-22" value="END" style="strokeWidth=2;html=1;shape=mxgraph.flowchart.terminator;whiteSpace=wrap;" parent="S-jQ02MztudYQy0zt7sg-1" vertex="1">
                    &#xa;                    &#xa;                    &#xa;                    
                    <mxGeometry x="136" y="1440" width="100" height="60" as="geometry"/>
                    &#xa;                    &#xa;                &#xa;                
                </mxCell>
                &#xa;                &#xa;                &#xa;                
                <mxCell id="S-jQ02MztudYQy0zt7sg-23" style="edgeStyle=orthogonalEdgeStyle;rounded=0;orthogonalLoop=1;jettySize=auto;html=1;exitX=0.5;exitY=1;exitDx=0;exitDy=0;" parent="S-jQ02MztudYQy0zt7sg-1" source="bf9LNsx6oVymAGHpaV8W-1" edge="1">
                    &#xa;                    &#xa;                    &#xa;                    
                    <mxGeometry relative="1" as="geometry">
                        &#xa;                        &#xa;                        &#xa;                        
                        <mxPoint x="190" y="1330" as="targetPoint"/>
                        &#xa;                        &#xa;                        &#xa;                        
                        <Array as="points">
                            &#xa;                            &#xa;                            &#xa;                            
                            <mxPoint x="382" y="1330"/>
                            &#xa;                            &#xa;                        &#xa;                        
                        </Array>
                        &#xa;                        &#xa;                        &#xa;                        
                        <mxPoint x="380" y="1150" as="sourcePoint"/>
                        &#xa;                        &#xa;                    &#xa;                    
                    </mxGeometry>
                    &#xa;                    &#xa;                &#xa;                
                </mxCell>
                &#xa;                &#xa;                &#xa;                
                <mxCell id="S-jQ02MztudYQy0zt7sg-25" value="NO" style="text;html=1;align=center;verticalAlign=middle;resizable=0;points=[];autosize=1;" parent="S-jQ02MztudYQy0zt7sg-1" vertex="1">
                    &#xa;                    &#xa;                    &#xa;                    
                    <mxGeometry x="322" y="800" width="30" height="20" as="geometry"/>
                    &#xa;                    &#xa;                &#xa;                
                </mxCell>
                &#xa;                &#xa;                &#xa;                
                <mxCell id="S-jQ02MztudYQy0zt7sg-32" value="&lt;span style=&quot;text-align: center&quot;&gt;現在再生している楽譜の中で&lt;/span&gt;&lt;br style=&quot;text-align: center&quot;&gt;&lt;span style=&quot;text-align: center&quot;&gt;何個目の音符を選択しているかを表す&lt;/span&gt;&lt;br style=&quot;text-align: center&quot;&gt;&lt;br style=&quot;text-align: center&quot;&gt;&lt;span style=&quot;text-align: center&quot;&gt;currentNotePos&lt;/span&gt;&lt;br style=&quot;text-align: center&quot;&gt;&lt;span style=&quot;text-align: center&quot;&gt;&lt;br&gt;&lt;br&gt;現在再生している音符の中で&lt;br&gt;16分音符で何個分の位置か表す&lt;br&gt;&lt;br&gt;currentNoteLength&lt;br&gt;&lt;br&gt;&lt;br&gt;&lt;/span&gt;" style="shape=note;whiteSpace=wrap;html=1;size=14;verticalAlign=top;align=left;spacingTop=-6;" parent="S-jQ02MztudYQy0zt7sg-1" vertex="1">
                    &#xa;                    &#xa;                    &#xa;                    
                    <mxGeometry x="530" y="760" width="200" height="160" as="geometry"/>
                    &#xa;                    &#xa;                &#xa;                
                </mxCell>
                &#xa;                &#xa;                &#xa;                
                <mxCell id="S-jQ02MztudYQy0zt7sg-33" value="YES" style="text;html=1;align=center;verticalAlign=middle;resizable=0;points=[];autosize=1;" parent="S-jQ02MztudYQy0zt7sg-1" vertex="1">
                    &#xa;                    &#xa;                    &#xa;                    
                    <mxGeometry x="190" y="880" width="40" height="20" as="geometry"/>
                    &#xa;                    &#xa;                &#xa;                
                </mxCell>
                &#xa;                &#xa;                &#xa;                
                <mxCell id="V3O2MATo2yL5r2en-jel-2" style="edgeStyle=orthogonalEdgeStyle;rounded=0;orthogonalLoop=1;jettySize=auto;html=1;exitX=1;exitY=0.5;exitDx=0;exitDy=0;" parent="S-jQ02MztudYQy0zt7sg-1" source="bf9LNsx6oVymAGHpaV8W-0" edge="1">
                    &#xa;                    &#xa;                    &#xa;                    
                    <mxGeometry relative="1" as="geometry">
                        &#xa;                        &#xa;                        &#xa;                        
                        <mxPoint x="490" y="670" as="targetPoint"/>
                        &#xa;                        &#xa;                        &#xa;                        
                        <mxPoint x="410" y="670" as="sourcePoint"/>
                        &#xa;                        &#xa;                    &#xa;                    
                    </mxGeometry>
                    &#xa;                    &#xa;                &#xa;                
                </mxCell>
                &#xa;                &#xa;                &#xa;                
                <mxCell id="bf9LNsx6oVymAGHpaV8W-0" value="&lt;span&gt;SEの再生状態をOFFにする&lt;/span&gt;" style="rounded=0;whiteSpace=wrap;html=1;" parent="S-jQ02MztudYQy0zt7sg-1" vertex="1">
                    &#xa;                    &#xa;                    &#xa;                    
                    <mxGeometry x="300" y="640" width="120" height="60" as="geometry"/>
                    &#xa;                    &#xa;                &#xa;                
                </mxCell>
                &#xa;                &#xa;                &#xa;                
                <mxCell id="bf9LNsx6oVymAGHpaV8W-1" value="currentNoteLengthを&lt;br&gt;1下げる" style="rounded=0;whiteSpace=wrap;html=1;" parent="S-jQ02MztudYQy0zt7sg-1" vertex="1">
                    &#xa;                    &#xa;                    &#xa;                    
                    <mxGeometry x="322" y="1065" width="120" height="60" as="geometry"/>
                    &#xa;                    &#xa;                &#xa;                
                </mxCell>
                &#xa;                &#xa;                &#xa;                
                <mxCell id="65qzZDBLnOFpyqLNWlP5-0" value="" style="edgeStyle=orthogonalEdgeStyle;rounded=0;orthogonalLoop=1;jettySize=auto;html=1;" parent="S-jQ02MztudYQy0zt7sg-1" source="65qzZDBLnOFpyqLNWlP5-5" target="65qzZDBLnOFpyqLNWlP5-3" edge="1">
                    &#xa;                    &#xa;                    &#xa;                    
                    <mxGeometry relative="1" as="geometry">
                        &#xa;                        &#xa;                        &#xa;                        
                        <mxPoint x="186" y="1015" as="sourcePoint"/>
                        &#xa;                        &#xa;                    &#xa;                    
                    </mxGeometry>
                    &#xa;                    &#xa;                &#xa;                
                </mxCell>
                &#xa;                &#xa;                &#xa;                
                <mxCell id="65qzZDBLnOFpyqLNWlP5-25" value="" style="edgeStyle=orthogonalEdgeStyle;rounded=0;orthogonalLoop=1;jettySize=auto;html=1;" parent="S-jQ02MztudYQy0zt7sg-1" source="65qzZDBLnOFpyqLNWlP5-3" target="65qzZDBLnOFpyqLNWlP5-24" edge="1">
                    &#xa;                    &#xa;                    &#xa;                    
                    <mxGeometry relative="1" as="geometry"/>
                    &#xa;                    &#xa;                &#xa;                
                </mxCell>
                &#xa;                &#xa;                &#xa;                
                <mxCell id="65qzZDBLnOFpyqLNWlP5-3" value="音符の高さに合わせて、タイマの周期を変える" style="shape=process;whiteSpace=wrap;html=1;backgroundOutline=1;" parent="S-jQ02MztudYQy0zt7sg-1" vertex="1">
                    &#xa;                    &#xa;                    &#xa;                    
                    <mxGeometry x="126" y="1070" width="120" height="60" as="geometry"/>
                    &#xa;                    &#xa;                &#xa;                
                </mxCell>
                &#xa;                &#xa;                &#xa;                
                <mxCell id="65qzZDBLnOFpyqLNWlP5-4" value="音符&lt;br&gt;&lt;br&gt;・音の長さ（Length）&lt;br&gt;・音の高さ&lt;br&gt;（Pich）&lt;br&gt;&lt;br&gt;を保持している配列" style="shape=note;whiteSpace=wrap;html=1;size=14;verticalAlign=top;align=left;spacingTop=-6;" parent="S-jQ02MztudYQy0zt7sg-1" vertex="1">
                    &#xa;                    &#xa;                    &#xa;                    
                    <mxGeometry x="10" y="900" width="100" height="130" as="geometry"/>
                    &#xa;                    &#xa;                &#xa;                
                </mxCell>
                &#xa;                &#xa;                &#xa;                
                <mxCell id="65qzZDBLnOFpyqLNWlP5-5" value="選択された音符の長さをcurrentNoteLenghにセットする" style="rounded=0;whiteSpace=wrap;html=1;" parent="S-jQ02MztudYQy0zt7sg-1" vertex="1">
                    &#xa;                    &#xa;                    &#xa;                    
                    <mxGeometry x="126" y="935" width="120" height="60" as="geometry"/>
                    &#xa;                    &#xa;                &#xa;                
                </mxCell>
                &#xa;                &#xa;                &#xa;                
                <mxCell id="65qzZDBLnOFpyqLNWlP5-24" value="currentNotePos を1増やす" style="shape=process;whiteSpace=wrap;html=1;backgroundOutline=1;" parent="S-jQ02MztudYQy0zt7sg-1" vertex="1">
                    &#xa;                    &#xa;                    &#xa;                    
                    <mxGeometry x="126" y="1200" width="120" height="60" as="geometry"/>
                    &#xa;                    &#xa;                &#xa;                
                </mxCell>
                &#xa;                &#xa;            &#xa;            
            </root>
            &#xa;            &#xa;        &#xa;        
        </mxGraphModel>
    </diagram>
    <diagram id="jsbVfTOteGh9sSpakAGU" name="タイマー">
        <mxGraphModel dx="311" dy="617" grid="1" gridSize="10" guides="1" tooltips="1" connect="1" arrows="1" fold="1" page="1" pageScale="1" pageWidth="827" pageHeight="1169" math="0" shadow="0">
            <root>
                <mxCell id="fyREyPSyROsIn6SRdbh7-0"/>
                <mxCell id="fyREyPSyROsIn6SRdbh7-1" parent="fyREyPSyROsIn6SRdbh7-0"/>
                <mxCell id="fyREyPSyROsIn6SRdbh7-2" value="Note&lt;br&gt;&lt;br&gt;1ms間隔で実行" style="shape=note;whiteSpace=wrap;html=1;size=14;verticalAlign=top;align=left;spacingTop=-6;" parent="fyREyPSyROsIn6SRdbh7-1" vertex="1">
                    <mxGeometry x="200" y="80" width="130" height="70" as="geometry"/>
                </mxCell>
                <mxCell id="69YqQm9Csj_Lq017zmNZ-4" value="" style="edgeStyle=orthogonalEdgeStyle;rounded=0;orthogonalLoop=1;jettySize=auto;html=1;" parent="fyREyPSyROsIn6SRdbh7-1" source="8_2POV5vk0qnU1P8Hncz-0" target="8_2POV5vk0qnU1P8Hncz-5" edge="1">
                    <mxGeometry relative="1" as="geometry"/>
                </mxCell>
                <mxCell id="8_2POV5vk0qnU1P8Hncz-0" value="START" style="strokeWidth=2;html=1;shape=mxgraph.flowchart.terminator;whiteSpace=wrap;" parent="fyREyPSyROsIn6SRdbh7-1" vertex="1">
                    <mxGeometry x="210" y="180" width="100" height="60" as="geometry"/>
                </mxCell>
                <mxCell id="8_2POV5vk0qnU1P8Hncz-2" value="END" style="strokeWidth=2;html=1;shape=mxgraph.flowchart.terminator;whiteSpace=wrap;" parent="fyREyPSyROsIn6SRdbh7-1" vertex="1">
                    <mxGeometry x="210" y="810" width="100" height="60" as="geometry"/>
                </mxCell>
                <mxCell id="69YqQm9Csj_Lq017zmNZ-2" style="edgeStyle=orthogonalEdgeStyle;rounded=0;orthogonalLoop=1;jettySize=auto;html=1;" parent="fyREyPSyROsIn6SRdbh7-1" source="8_2POV5vk0qnU1P8Hncz-5" edge="1">
                    <mxGeometry relative="1" as="geometry">
                        <mxPoint x="270" y="760" as="targetPoint"/>
                        <Array as="points">
                            <mxPoint x="440" y="320"/>
                            <mxPoint x="440" y="760"/>
                        </Array>
                    </mxGeometry>
                </mxCell>
                <mxCell id="69YqQm9Csj_Lq017zmNZ-3" value="" style="edgeStyle=orthogonalEdgeStyle;rounded=0;orthogonalLoop=1;jettySize=auto;html=1;" parent="fyREyPSyROsIn6SRdbh7-1" source="8_2POV5vk0qnU1P8Hncz-5" target="69YqQm9Csj_Lq017zmNZ-1" edge="1">
                    <mxGeometry relative="1" as="geometry"/>
                </mxCell>
                <mxCell id="8_2POV5vk0qnU1P8Hncz-5" value="BGMか効果音が&lt;br&gt;再生中か" style="strokeWidth=2;html=1;shape=mxgraph.flowchart.decision;whiteSpace=wrap;" parent="fyREyPSyROsIn6SRdbh7-1" vertex="1">
                    <mxGeometry x="180" y="270" width="160" height="100" as="geometry"/>
                </mxCell>
                <mxCell id="69YqQm9Csj_Lq017zmNZ-6" value="" style="edgeStyle=orthogonalEdgeStyle;rounded=0;orthogonalLoop=1;jettySize=auto;html=1;exitX=0.5;exitY=1;exitDx=0;exitDy=0;" parent="fyREyPSyROsIn6SRdbh7-1" source="LkJ7RMzlXf9JLvFyQuhe-0" target="8_2POV5vk0qnU1P8Hncz-2" edge="1">
                    <mxGeometry relative="1" as="geometry">
                        <mxPoint x="260" y="710" as="sourcePoint"/>
                    </mxGeometry>
                </mxCell>
                <mxCell id="69YqQm9Csj_Lq017zmNZ-5" value="" style="edgeStyle=orthogonalEdgeStyle;rounded=0;orthogonalLoop=1;jettySize=auto;html=1;" parent="fyREyPSyROsIn6SRdbh7-1" source="69YqQm9Csj_Lq017zmNZ-1" edge="1">
                    <mxGeometry relative="1" as="geometry">
                        <mxPoint x="260" y="610" as="targetPoint"/>
                    </mxGeometry>
                </mxCell>
                <mxCell id="69YqQm9Csj_Lq017zmNZ-9" style="edgeStyle=orthogonalEdgeStyle;rounded=0;orthogonalLoop=1;jettySize=auto;html=1;" parent="fyREyPSyROsIn6SRdbh7-1" source="69YqQm9Csj_Lq017zmNZ-1" edge="1">
                    <mxGeometry relative="1" as="geometry">
                        <mxPoint x="390" y="760" as="targetPoint"/>
                    </mxGeometry>
                </mxCell>
                <mxCell id="69YqQm9Csj_Lq017zmNZ-1" value="16分音符分の長さが&lt;br&gt;経過したか？" style="strokeWidth=2;html=1;shape=mxgraph.flowchart.decision;whiteSpace=wrap;" parent="fyREyPSyROsIn6SRdbh7-1" vertex="1">
                    <mxGeometry x="180" y="440" width="160" height="100" as="geometry"/>
                </mxCell>
                <mxCell id="69YqQm9Csj_Lq017zmNZ-7" value="No" style="text;html=1;align=center;verticalAlign=middle;resizable=0;points=[];autosize=1;" parent="fyREyPSyROsIn6SRdbh7-1" vertex="1">
                    <mxGeometry x="325" y="280" width="30" height="20" as="geometry"/>
                </mxCell>
                <mxCell id="69YqQm9Csj_Lq017zmNZ-8" value="Yes" style="text;html=1;align=center;verticalAlign=middle;resizable=0;points=[];autosize=1;" parent="fyREyPSyROsIn6SRdbh7-1" vertex="1">
                    <mxGeometry x="260" y="380" width="40" height="20" as="geometry"/>
                </mxCell>
                <mxCell id="69YqQm9Csj_Lq017zmNZ-10" value="No" style="text;html=1;align=center;verticalAlign=middle;resizable=0;points=[];autosize=1;" parent="fyREyPSyROsIn6SRdbh7-1" vertex="1">
                    <mxGeometry x="340" y="470" width="30" height="20" as="geometry"/>
                </mxCell>
                <mxCell id="69YqQm9Csj_Lq017zmNZ-11" value="Yes" style="text;html=1;align=center;verticalAlign=middle;resizable=0;points=[];autosize=1;" parent="fyREyPSyROsIn6SRdbh7-1" vertex="1">
                    <mxGeometry x="260" y="540" width="40" height="20" as="geometry"/>
                </mxCell>
                <mxCell id="R9tfEGLHaSkb3zuQ8m71-0" value="LengthNote16thフラグ&lt;br&gt;&lt;br&gt;ブザーの更新シートで16分音符分の時間経過を確認するために使用&lt;br&gt;タイマでフラグがONになる&lt;br&gt;ブザーの更新シートでOFFになる" style="shape=note;whiteSpace=wrap;html=1;size=14;verticalAlign=top;align=left;spacingTop=-6;" parent="fyREyPSyROsIn6SRdbh7-1" vertex="1">
                    <mxGeometry x="480" y="470" width="170" height="130" as="geometry"/>
                </mxCell>
                <mxCell id="LkJ7RMzlXf9JLvFyQuhe-0" value="&lt;span&gt;LengthNote16thフラグを立てる&lt;/span&gt;" style="rounded=0;whiteSpace=wrap;html=1;" parent="fyREyPSyROsIn6SRdbh7-1" vertex="1">
                    <mxGeometry x="200" y="610" width="120" height="60" as="geometry"/>
                </mxCell>
                <mxCell id="kUsLSB8gHeF8mXKt5EiQ-0" value="LengthNote16th&lt;br&gt;ブザーの初期化で、16分音符の長さを楽譜のテンポから求めて格納される" style="shape=note;whiteSpace=wrap;html=1;size=14;verticalAlign=top;align=left;spacingTop=-6;" parent="fyREyPSyROsIn6SRdbh7-1" vertex="1">
                    <mxGeometry x="480" y="340" width="170" height="70" as="geometry"/>
                </mxCell>
            </root>
        </mxGraphModel>
    </diagram>
    <diagram id="xNz86R17GonFB5zBXjN0" name="ブザーの初期化">
        <mxGraphModel dx="311" dy="617" grid="1" gridSize="10" guides="1" tooltips="1" connect="1" arrows="1" fold="1" page="1" pageScale="1" pageWidth="827" pageHeight="1169" math="0" shadow="0">
            <root>
                <mxCell id="5-Nhqkm_rvVWBx7Hjhzw-0"/>
                <mxCell id="5-Nhqkm_rvVWBx7Hjhzw-1" parent="5-Nhqkm_rvVWBx7Hjhzw-0"/>
                <mxCell id="5XuLtP4d3ldzbSKQBxIH-2" value="" style="edgeStyle=orthogonalEdgeStyle;rounded=0;orthogonalLoop=1;jettySize=auto;html=1;" parent="5-Nhqkm_rvVWBx7Hjhzw-1" source="UbNxdlS1aWlcAlgW2em--0" target="UbNxdlS1aWlcAlgW2em--2" edge="1">
                    <mxGeometry relative="1" as="geometry"/>
                </mxCell>
                <mxCell id="UbNxdlS1aWlcAlgW2em--0" value="START" style="strokeWidth=2;html=1;shape=mxgraph.flowchart.terminator;whiteSpace=wrap;" parent="5-Nhqkm_rvVWBx7Hjhzw-1" vertex="1">
                    <mxGeometry x="364" y="20" width="100" height="60" as="geometry"/>
                </mxCell>
                <mxCell id="UbNxdlS1aWlcAlgW2em--1" value="END" style="strokeWidth=2;html=1;shape=mxgraph.flowchart.terminator;whiteSpace=wrap;" parent="5-Nhqkm_rvVWBx7Hjhzw-1" vertex="1">
                    <mxGeometry x="364" y="340" width="100" height="60" as="geometry"/>
                </mxCell>
                <mxCell id="5XuLtP4d3ldzbSKQBxIH-1" value="" style="edgeStyle=orthogonalEdgeStyle;rounded=0;orthogonalLoop=1;jettySize=auto;html=1;" parent="5-Nhqkm_rvVWBx7Hjhzw-1" source="UbNxdlS1aWlcAlgW2em--2" target="UbNxdlS1aWlcAlgW2em--3" edge="1">
                    <mxGeometry relative="1" as="geometry"/>
                </mxCell>
                <mxCell id="UbNxdlS1aWlcAlgW2em--2" value="BGMの楽譜のテンポを取得する" style="rounded=0;whiteSpace=wrap;html=1;" parent="5-Nhqkm_rvVWBx7Hjhzw-1" vertex="1">
                    <mxGeometry x="354" y="110" width="120" height="60" as="geometry"/>
                </mxCell>
                <mxCell id="5XuLtP4d3ldzbSKQBxIH-0" value="" style="edgeStyle=orthogonalEdgeStyle;rounded=0;orthogonalLoop=1;jettySize=auto;html=1;" parent="5-Nhqkm_rvVWBx7Hjhzw-1" source="UbNxdlS1aWlcAlgW2em--3" target="UbNxdlS1aWlcAlgW2em--1" edge="1">
                    <mxGeometry relative="1" as="geometry"/>
                </mxCell>
                <mxCell id="UbNxdlS1aWlcAlgW2em--3" value="16分音符の長さを計算する&lt;br&gt;LengthNote16th&lt;br&gt;= 15 / テンポ" style="rounded=0;whiteSpace=wrap;html=1;" parent="5-Nhqkm_rvVWBx7Hjhzw-1" vertex="1">
                    <mxGeometry x="354" y="220" width="120" height="60" as="geometry"/>
                </mxCell>
                <mxCell id="UbNxdlS1aWlcAlgW2em--4" value="60テンポ&lt;br&gt;&lt;br&gt;4分音符 * 60個 = 1分間&lt;br&gt;(16分音符 * 4つ) * 60個 = 60秒&lt;br&gt;16分音符 = 60秒 / (4つ * 60個) = 15 / 60&lt;br&gt;16分音符 = 0.25秒 = 250ms&lt;br&gt;&lt;br&gt;100テンポ&lt;br&gt;&lt;br&gt;4分音符 * 100個 = 60秒&lt;br&gt;&lt;br&gt;16分音符 * 4 * 100 = 60&lt;br&gt;16分音符 = 60 / (4 * 100)&lt;br&gt;16分音符 = 15 / 100&lt;br&gt;16分音符 = 0.15s = 150ms" style="shape=note;whiteSpace=wrap;html=1;size=14;verticalAlign=top;align=left;spacingTop=-6;" parent="5-Nhqkm_rvVWBx7Hjhzw-1" vertex="1">
                    <mxGeometry x="550" y="140" width="230" height="309" as="geometry"/>
                </mxCell>
            </root>
        </mxGraphModel>
    </diagram>
</mxfile>